# xmcd
# Copyright (C) 1995-1998 Ti Kan
#
# Track frame offsets:
#       182
#       18417
#       54977
#       84262
#       99107
#       120795
#       137497
#       154222
#       172515
#       188767
#       217182
#       234695
#       250947
#       267272
#       293210
#       316270
#
# Disc length: 4461 seconds
#
# Revision: 0
# Processed by: cddbd v1.5.1PL0 Copyright (c) Steve Scherf et al.
# Submitted via: CD-Transfer v1.0
#
DISCID=c8116b10
DTITLE=Various Artist - 
DYEAR=94
DGENRE=
TTITLE0=Ace of Base     Living in danger
TTITLE1=Heavy D and the Boys    This is your  night
TTITLE2=Ice MC    It's a rainy day
TTITLE3=20 Fingers    Short dick man
TTITLE4=Rednex    Cotton eye joe
TTITLE5=Cappella     Move it up
TTITLE6=Masterboy     Is this the love
TTITLE7=Mr. Kash    Born to love you
TTITLE8=2 for love     Only for love
TTITLE9=Double AA     Dancers in the night
TTITLE10=Mr. President    Up'n away
TTITLE11=Comic     I surrender to your love
TTITLE12=Livin' joy     Dreamer
TTITLE13=H2Blond    Bodytalk
TTITLE14=Scooter Hyper Hyper
TTITLE15=The Prodigy   Voodoo People
EXTD=
EXTT0=
EXTT1=
EXTT2=
EXTT3=
EXTT4=
EXTT5=
EXTT6=
EXTT7=
EXTT8=
EXTT9=
EXTT10=
EXTT11=
EXTT12=
EXTT13=
EXTT14=
EXTT15=
PLAYORDER=
